<?xml version="1.0" encoding="UTF-8" standalone="no"?>
<svg
   xmlns:dc="http://purl.org/dc/elements/1.1/"
   xmlns:cc="http://creativecommons.org/ns#"
   xmlns:rdf="http://www.w3.org/1999/02/22-rdf-syntax-ns#"
   xmlns:svg="http://www.w3.org/2000/svg"
   xmlns="http://www.w3.org/2000/svg"
   xmlns:sodipodi="http://sodipodi.sourceforge.net/DTD/sodipodi-0.dtd"
   xmlns:inkscape="http://www.inkscape.org/namespaces/inkscape"
   width="26"
   height="208"
   version="1.1"
   id="svg3769"
   sodipodi:docname="sprites.svg"
   inkscape:version="0.92.4 (5da689c313, 2019-01-14)">
  <metadata
     id="metadata3775">
    <rdf:RDF>
      <cc:Work
         rdf:about="">
        <dc:format>image/svg+xml</dc:format>
        <dc:type
           rdf:resource="http://purl.org/dc/dcmitype/StillImage" />
      </cc:Work>
    </rdf:RDF>
  </metadata>
  <defs
     id="defs3773" />
  <sodipodi:namedview
     pagecolor="#ffffff"
     bordercolor="#666666"
     borderopacity="1"
     objecttolerance="10"
     gridtolerance="10"
     guidetolerance="10"
     inkscape:pageopacity="0"
     inkscape:pageshadow="2"
     inkscape:window-width="1920"
     inkscape:window-height="1027"
     id="namedview3771"
     showgrid="false"
     inkscape:zoom="33"
     inkscape:cx="19.843511"
     inkscape:cy="63.707987"
     inkscape:window-x="1912"
     inkscape:window-y="-8"
     inkscape:window-maximized="1"
     inkscape:current-layer="svg3769" />
  <circle
     fill-opacity=".78"
     cy="117"
     cx="13"
     r="11"
     fill="#fff"
     id="circle3745" />
  <circle
     fill-opacity=".78"
     cy="143"
     cx="13"
     r="11"
     fill="#fff"
     id="circle3747" />
  <circle
     cy="169"
     cx="13"
     r="7"
     fill="none"
     stroke="#000"
     stroke-width="2"
     id="circle3749" />
  <circle
     cy="195"
     cx="13"
     r="7"
     fill="none"
     stroke="#000"
     stroke-width="2"
     id="circle3751" />
  <circle
     cx="13"
     cy="195"
     r="2.5"
     id="circle3753" />
  <path
     d="m5 83v6h2v-4h4v-2zm10 0v2h4v4h2v-6zm-5 5v6h6v-6zm-5 5v6h6v-2h-4v-4zm14 0v4h-4v2h6v-6z"
     id="path3755" />
  <path
     d="m13 110a7 7 0 0 0 -7 7 7 7 0 0 0 7 7 7 7 0 0 0 7 -7 7 7 0 0 0 -7 -7zm-1 3h2v2h-2zm0 3h2v5h-2z"
     id="path3757" />
  <path
     d="m5 57v6h2v-4h4v-2zm10 0v2h4v4h2v-6zm-10 10v6h6v-2h-4v-4zm14 0v4h-4v2h6v-6z"
     id="path3759" />
  <path
     d="m17 38v2h-8v-2z"
     id="path3761" />
  <path
     d="m12 9v3h-3v2h3v3h2v-3h3v-2h-3v-3z"
     id="path3763" />
  <path
     d="m 13,150 6.125,-6.125 H 14.75 V 136 h -3.5 v 7.875 H 6.875 Z"
     id="path3765"
     inkscape:connector-curvature="0" />
  <path
     d="m10.428 173.33v-5.77l5-2.89v5.77zm1-1.73 3-1.73-3.001-1.74z"
     id="path3767" />
</svg>
